<?xml version="1.0" encoding="utf-8"?>
<svg width="12px" height="12px" viewBox="0 0 12 12" version="1.1" xmlns:xlink="http://www.w3.org/1999/xlink" xmlns="http://www.w3.org/2000/svg">
  <desc>Created with Lunacy</desc>
  <path d="M11.1429 0L0.854464 0C0.383036 0 0 0.388393 0 0.865179L0 11.1348C0 11.6116 0.383036 12 0.854464 12L11.1429 12C11.6143 12 12 11.6116 12 11.1348L12 0.865179C12 0.388393 11.6143 0 11.1429 0ZM2.7375 3.77679C2.16696 3.77679 1.70625 3.31339 1.70625 2.74554C1.70625 2.17768 2.16696 1.71429 2.7375 1.71429C3.30536 1.71429 3.76875 2.17768 3.76875 2.74554C3.76875 3.31607 3.30804 3.77679 2.7375 3.77679ZM8.51518 10.2857L10.2938 10.2857L10.2938 7.14643C10.2938 5.60357 9.95893 4.41696 8.15893 4.41696C7.29375 4.41696 6.7125 4.89107 6.47411 5.34107L6.45 5.34107L6.45 4.55893L4.74375 4.55893L4.74375 10.2857L6.52232 10.2857L6.52232 7.45179C6.52232 6.70446 6.66429 5.98125 7.59107 5.98125C8.50179 5.98125 8.51518 6.83571 8.51518 7.5L8.51518 10.2857ZM1.84821 10.2857L3.62946 10.2857L3.62946 4.55893L1.84821 4.55893L1.84821 10.2857Z" id="Shape" fill="#000000" fill-rule="evenodd" stroke="none" />
</svg>
