<?xml version="1.0" encoding="utf-8"?>
<svg width="10px" height="10px" viewBox="0 0 10 10" version="1.1" xmlns:xlink="http://www.w3.org/1999/xlink" xmlns="http://www.w3.org/2000/svg">
  <desc>Created with Lunacy</desc>
  <g id="envelope-square-solid">
    <path d="M1.07143 0L8.92857 0C9.52031 0 10 0.479687 10 1.07143L10 8.92857C10 9.52031 9.52031 10 8.92857 10L1.07143 10C0.479687 10 0 9.52031 0 8.92857L0 1.07143C0 0.479687 0.479687 0 1.07143 0ZM3.97583 5.13625C1.95154 3.66712 1.97217 3.66341 1.42857 3.24033L1.42857 2.67857C1.42857 2.3827 1.66842 2.14286 1.96429 2.14286L8.03571 2.14286C8.33158 2.14286 8.57143 2.3827 8.57143 2.67857L8.57143 3.24033C8.02743 3.66375 8.04835 3.66721 6.02417 5.13627C5.98482 5.16496 5.93892 5.20046 5.88826 5.23964C5.63721 5.4338 5.26914 5.71846 5 5.71426C4.73063 5.71831 4.36295 5.43393 4.11184 5.23971C4.06117 5.20051 4.01524 5.16499 3.97583 5.13625ZM8.57143 7.32143L8.57143 4.14676C8.25987 4.38768 7.82757 4.71002 6.44458 5.71371C6.40065 5.74575 6.3519 5.78343 6.29883 5.82444C5.98285 6.06863 5.51378 6.43111 4.99993 6.42855C4.48863 6.43113 4.02501 6.07379 3.70392 5.82632C3.65048 5.78513 3.60098 5.74698 3.55587 5.71404C2.17252 4.71007 1.74013 4.3877 1.42857 4.14676L1.42857 7.32143C1.42857 7.6173 1.66842 7.85714 1.96429 7.85714L8.03571 7.85714C8.33158 7.85714 8.57143 7.6173 8.57143 7.32143Z" id="Shape" fill="#000000" fill-rule="evenodd" stroke="none" />
  </g>
</svg>
