<?xml version="1.0" encoding="utf-8"?>
<svg width="10px" height="14px" viewBox="0 0 10 14" version="1.1" xmlns:xlink="http://www.w3.org/1999/xlink" xmlns="http://www.w3.org/2000/svg">
  <desc>Created with Lunacy</desc>
  <path d="M0 5C0 7.01596 0.702344 7.57893 4.48615 13.0643C4.73443 13.423 5.26555 13.423 5.51385 13.0643C9.29766 7.57893 10 7.01596 10 5C10 2.23857 7.76143 0 5 0C2.23857 0 0 2.23857 0 5ZM7.08333 5C7.08333 6.1506 6.1506 7.08333 5 7.08333C3.8494 7.08333 2.91667 6.1506 2.91667 5C2.91667 3.8494 3.8494 2.91667 5 2.91667C6.1506 2.91667 7.08333 3.8494 7.08333 5Z" id="Shape" fill="#000000" fill-rule="evenodd" stroke="none" />
</svg>
