<?xml version="1.0" encoding="utf-8"?>
<svg width="10px" height="10px" viewBox="0 0 10 10" version="1.1" xmlns:xlink="http://www.w3.org/1999/xlink" xmlns="http://www.w3.org/2000/svg">
  <desc>Created with Lunacy</desc>
  <path d="M1.07143 0L8.92857 0C9.52031 0 10 0.479687 10 1.07143L10 8.92857C10 9.52031 9.52031 10 8.92857 10L1.07143 10C0.479687 10 0 9.52031 0 8.92857L0 1.07143C0 0.479687 0.479687 0 1.07143 0ZM1.77196 8.3119C1.80676 8.46266 1.94123 8.57143 2.09821 8.57143C5.67087 8.57143 8.57143 5.67616 8.57143 2.09821C8.57143 1.9423 8.4638 1.80703 8.31187 1.77201L6.86098 1.43723C6.7031 1.4008 6.54178 1.48265 6.47795 1.63158L5.8083 3.19404C5.74955 3.33116 5.78859 3.4906 5.90404 3.58507L6.74971 4.27696C6.24783 5.34665 5.36942 6.23716 4.27692 6.74973L3.58502 5.90408C3.49056 5.78863 3.33111 5.74959 3.194 5.80835L1.63154 6.47797C1.48261 6.5418 1.40075 6.70312 1.43719 6.861L1.77196 8.3119Z" id="Shape" fill="#000000" fill-rule="evenodd" stroke="none" />
</svg>
