<?xml version="1.0" encoding="utf-8"?>
<svg width="10px" height="10px" viewBox="0 0 10 10" version="1.1" xmlns:xlink="http://www.w3.org/1999/xlink" xmlns="http://www.w3.org/2000/svg">
  <desc>Created with Lunacy</desc>
  <path d="M5 0C5.80242 0 6.49194 1.26411 6.78427 3.06452L3.21573 3.06452C3.50806 1.26411 4.19758 0 5 0ZM3.57258 0.209677C2.13306 0.637097 0.96371 1.69556 0.389113 3.06452L2.56653 3.06452C2.74194 1.91734 3.08065 0.891129 3.57258 0.209677ZM6.4254 0.209677C7.86694 0.637097 9.03428 1.69556 9.61089 3.06452L7.43347 3.06452C7.25605 1.91734 6.91734 0.891129 6.4254 0.209677ZM2.41935 5C2.41935 4.56653 2.44355 4.13306 2.48589 3.70968L0.173387 3.70968C0.0645161 4.12298 0 4.55242 0 5C0 5.44758 0.0645161 5.87702 0.173387 6.29032L2.48387 6.29032C2.44355 5.86694 2.41935 5.43347 2.41935 5ZM3.06452 5C3.06452 5.44758 3.08871 5.87702 3.13105 6.29032L6.86694 6.29032C6.90927 5.87702 6.93347 5.44758 6.93347 5C6.93347 4.55242 6.90927 4.12298 6.86694 3.70968L3.13105 3.70968C3.08871 4.12298 3.06452 4.55242 3.06452 5ZM7.51411 3.70968L9.82661 3.70968C9.93548 4.12298 9.99798 4.55242 9.99798 5C9.99798 5.44758 9.93548 5.87702 9.8246 6.29032L7.51411 6.29032C7.55645 5.86694 7.58065 5.43347 7.58065 5C7.58065 4.56653 7.55645 4.13306 7.51411 3.70968ZM3.5746 9.79032C2.13306 9.3629 0.965726 8.30444 0.389113 6.93548L2.56653 6.93548C2.74395 8.08266 3.08266 9.10887 3.5746 9.79032ZM5 10C4.19758 10 3.50806 8.73589 3.21573 6.93548L6.78427 6.93548C6.49194 8.73589 5.80242 10 5 10ZM6.42742 9.79032C7.86694 9.3629 9.03629 8.30444 9.6129 6.93548L7.43548 6.93548C7.25806 8.08266 6.91935 9.10887 6.42742 9.79032Z" id="Shape" fill="#000000" fill-rule="evenodd" stroke="none" />
</svg>
