<?xml version="1.0" standalone="no"?>
<!DOCTYPE svg PUBLIC "-//W3C//DTD SVG 20010904//EN"
 "http://www.w3.org/TR/2001/REC-SVG-20010904/DTD/svg10.dtd">
<svg version="1.0" xmlns="http://www.w3.org/2000/svg"
 width="189.000000pt" height="189.000000pt" viewBox="0 0 189.000000 189.000000"
 preserveAspectRatio="xMidYMid meet">
<metadata>
Created by potrace 1.11, written by Peter Selinger 2001-2013
</metadata>
<g transform="translate(0.000000,189.000000) scale(0.100000,-0.100000)"
fill="#000000" stroke="none">
<path d="M517 1229 c-91 -21 -178 -95 -219 -184 -32 -71 -32 -209 0 -280 30
-65 82 -118 146 -147 44 -20 67 -23 166 -22 93 0 125 4 165 21 l50 21 3 161 2
161 -135 0 -135 0 0 -55 0 -54 63 -3 62 -3 3 -61 c3 -57 1 -62 -20 -68 -74
-19 -169 9 -206 62 -34 47 -48 122 -33 184 25 111 103 165 226 155 39 -3 88
-12 108 -21 l37 -15 0 68 0 68 -57 12 c-65 13 -171 13 -226 0z"/>
<path d="M950 915 l0 -315 65 0 65 0 0 233 0 232 34 -95 c18 -52 55 -157 82
-233 l49 -138 60 3 59 3 68 195 c38 107 75 218 83 245 13 47 14 33 14 -197 l1
-248 70 0 70 0 0 315 0 315 -103 0 -103 0 -66 -192 c-37 -106 -70 -205 -73
-220 -10 -39 -19 -35 -32 15 -7 23 -39 122 -73 220 l-62 177 -104 0 -104 0 0
-315z"/>
</g>
</svg>
